<?xml version="1.0" encoding="utf-8"?>
<!-- Generator: Adobe Illustrator 23.0.1, SVG Export Plug-In . SVG Version: 6.00 Build 0)  -->
<svg version="1.1" id="图层_1" xmlns="http://www.w3.org/2000/svg" xmlns:xlink="http://www.w3.org/1999/xlink" x="0px" y="0px"
	 viewBox="0 0 103 32" style="enable-background:new 0 0 103 32;" xml:space="preserve">
<style type="text/css">
	.st0{fill-rule:evenodd;clip-rule:evenodd;fill:#DF2422;}
	.st1{fill:#333330;}
</style>
<g id="页面1">
	<g id="更换logo" transform="translate(-25.000000, -57.000000)">
		<g id="编组" transform="translate(25.000000, 57.000000)">
			<g id="编组复制-3">
				<path id="Fill-1" class="st0" d="M18.4,2.9c1.2-1.4,2.9-2.1,5.4-2.1H29v1c0,1-0.8,1.8-1.7,1.8h-3.5c-1.3,0-2.2,0.5-2.8,1.4
					c-0.6,0.9-0.9,2.4-0.9,4.5c0,1.8,0.3,3.1,0.8,3.8c0.6,0.7,1.5,1.1,2.9,1.1H29v1c0,1-0.7,1.8-1.7,1.8h-3.7
					c-1.2,0-2.1-0.1-2.8-0.3c-0.7-0.2-1.3-0.6-1.9-1.1c-0.8-0.7-1.3-1.5-1.7-2.6c-0.4-1.1-0.6-2.4-0.6-3.8
					C16.7,6.4,17.2,4.3,18.4,2.9"/>
				<path id="Fill-3" class="st0" d="M54.9,2.9c1.2-1.4,2.9-2.1,5.4-2.1h5.2v1c0,1-0.8,1.8-1.7,1.8h-3.5c-1.3,0-2.2,0.5-2.8,1.4
					c-0.6,0.9-0.9,2.4-0.9,4.5c0,1.8,0.3,3.1,0.8,3.8c0.6,0.7,1.5,1.1,2.9,1.1h5.2v1c0,1-0.7,1.8-1.7,1.8h-3.7
					c-1.2,0-2.1-0.1-2.8-0.3c-0.7-0.2-1.3-0.6-1.9-1.1c-0.8-0.7-1.3-1.5-1.7-2.6c-0.4-1.1-0.6-2.4-0.6-3.8
					C53.2,6.4,53.8,4.3,54.9,2.9"/>
				<path id="Fill-5" class="st0" d="M32,2.9c1.2-1.4,2.9-2.1,5.3-2.1h6.8v1c0,1-0.7,1.8-1.6,1.8h-5.2c-1.2,0-2.1,0.4-2.7,1.3
					c-0.6,0.9-0.9,2.3-0.9,4.2c0,1.8,0.3,3.1,0.8,3.9c0.6,0.8,1.5,1.2,2.7,1.2h3.6v-3.8h-4.2V7.5l6.1,0c0.8,0.1,1.4,0.8,1.4,1.6v6.3
					c0,1-0.7,1.8-1.7,1.8h-5.1c-1.3,0-2.2-0.1-2.9-0.3c-0.7-0.2-1.3-0.6-1.9-1.1c-0.8-0.7-1.3-1.5-1.7-2.6c-0.4-1.1-0.6-2.4-0.6-3.8
					C30.3,6.4,30.9,4.3,32,2.9"/>
				<path id="Fill-7" class="st0" d="M12.4,1.7c0.3-0.5,0.7-0.8,1.3-0.8h2.4l-6,15.6c-0.2,0.5-0.6,0.8-1.1,0.8H6.5L0,0.9h2.6
					c0.6,0,1,0.3,1.3,0.9L8.1,13L12.4,1.7z"/>
				<path id="Fill-9" class="st0" d="M84,0.9h3.9c0.8,0,1.5,0.5,1.7,1.2L93.2,13l3.7-10.8c0.2-0.7,0.9-1.2,1.7-1.2h3.7v14.4
					c0,1-0.8,1.8-1.8,1.8h-1.3l0-12.7l-3.7,11.4c-0.2,0.7-0.9,1.3-1.7,1.3h-2.3L87.1,4.4l0,11c0,1-0.8,1.8-1.8,1.8l-1.3,0V0.9z"/>
				<path id="Fill-11" class="st0" d="M74.4,3.5c-1.4,0-2.5,0.4-3.2,1.3c-0.7,0.9-1.1,2.2-1.1,4c0,1.9,0.3,3.4,1,4.3
					s1.8,1.4,3.2,1.4c1.4,0,2.5-0.4,3.2-1.3c0.7-0.9,1-2.3,1-4.2c0-1.9-0.3-3.3-1-4.2C76.9,4,75.9,3.5,74.4,3.5 M66.5,8.9
					c0-2.7,0.6-4.7,1.9-6.1c1.3-1.3,3.3-2,5.9-2c2.7,0,4.7,0.7,5.9,2c1.3,1.3,1.9,3.4,1.9,6.2c0,2.8-0.6,4.9-1.9,6.2
					c-1.3,1.3-3.3,2-5.9,2c-2.7,0-4.7-0.7-6-2C67.2,13.9,66.5,11.8,66.5,8.9"/>
				<path id="Fill-13" class="st0" d="M49.1,17.6L49.1,17.6c-0.6,0-1.1-0.5-1.1-1.1c0-0.6,0.5-1.1,1.1-1.1c0.6,0,1.1,0.5,1.1,1.1
					C50.2,17.1,49.7,17.6,49.1,17.6"/>
			</g>
			<path id="视觉中国旗下网站" class="st1" d="M6.2,23.7v4.7H5.5v-5.3H10v5.3H9.3v-4.7H6.2z M4.1,23.9l-0.5,0.4
				C3.4,23.9,3,23.4,2.6,23l0.5-0.3C3.5,23,3.9,23.6,4.1,23.9z M5.1,28.2l-0.4,0.5c-0.2-0.3-0.7-0.9-1-1.4v4.4H3v-4
				c-0.4,0.4-0.8,0.8-1.2,1.1c0-0.2-0.2-0.5-0.3-0.6c1-0.7,2.1-2,2.7-3.3H1.7v-0.6h2.8l0.1,0L5,24.6c-0.3,0.8-0.7,1.5-1.2,2.2
				C4.2,27.2,4.9,28,5.1,28.2z M8.7,31.1h0.9c0.4,0,0.4-0.3,0.5-1.7c0.2,0.1,0.4,0.2,0.6,0.3c-0.1,1.6-0.2,2-1,2H8.6
				c-0.7,0-0.9-0.2-0.9-0.8v-2.1c-0.4,1.1-1.1,2.2-2.7,3.1c-0.1-0.1-0.3-0.4-0.4-0.5c2.5-1.3,2.8-3.2,2.8-4.7v-2H8v2
				c0,0.5,0,1.1-0.2,1.7h0.5v2.5C8.3,31,8.4,31.1,8.7,31.1z M19.7,24.1l-0.6,0.2c-0.1-0.4-0.5-1-0.8-1.5l0.6-0.2
				C19.1,23.1,19.5,23.7,19.7,24.1z M15.6,25v1.4H15v-1.9h1.7c-0.2-0.4-0.6-0.9-1-1.3l0.6-0.3c0.4,0.4,0.9,0.9,1,1.3l-0.5,0.2h3.9
				c0.4-0.5,0.9-1.2,1.1-1.7l0.7,0.2c-0.3,0.5-0.7,1-1.1,1.5h1.8v1.9h-0.7V25H15.6z M22,29.6h-0.7v-3h-4.4v3h-0.7V26H22V29.6z
				 M18.7,28.1v-1.1h0.7v1.1c0,1.2-0.4,2.6-4.1,3.7c-0.1-0.1-0.3-0.4-0.4-0.5C18.5,30.4,18.7,29.1,18.7,28.1z M20.8,31h1.7
				c0.4,0,0.5-0.1,0.5-1.1c0.1,0.1,0.4,0.2,0.6,0.2c-0.1,1.1-0.3,1.4-1,1.4h-1.8c-0.9,0-1.2-0.2-1.2-0.9V29h0.7v1.7
				C20.2,30.9,20.3,31,20.8,31z M32.5,27.8h3v-2.7h-3V27.8z M28.9,27.8h3v-2.7h-3V27.8z M32.5,24.4h3.6v4.6h-0.7v-0.6h-3v3.3h-0.7
				v-3.3h-3v0.6h-0.7v-4.7h3.6v-1.8h0.7V24.4z M45.6,29.1h2.5v0.6h-5.5v-0.6h2.4v-1.8H43v-0.6h1.9v-1.5h-2.2v-0.6h5.2v0.6h-2.3v1.5
				h2.1v0.6h-2.1V29.1z M46.2,27.8l0.4-0.2c0.4,0.3,0.8,0.8,1,1.1l-0.5,0.3C47.1,28.6,46.6,28.1,46.2,27.8z M41.9,30.6h6.8v-6.9
				h-6.8V30.6z M41.2,23.1h8.2v8.7h-0.7v-0.5h-6.8v0.5h-0.7V23.1z M56.3,24l-0.6,0.2c-0.1-0.4-0.5-1-0.7-1.4l0.6-0.2
				C55.8,23.1,56.1,23.6,56.3,24z M56.8,26.3h0.3c0,0,0,0.2,0,0.3c-0.1,3.3-0.2,4.3-0.4,4.7c-0.1,0.2-0.3,0.3-0.5,0.3
				c-0.2,0-0.5,0-0.9,0c0-0.2-0.1-0.4-0.1-0.6c0.3,0,0.6,0,0.8,0c0.1,0,0.2,0,0.3-0.1c0.2-0.2,0.3-1.2,0.3-4h-1.1
				c-0.1,1.9-0.4,3.7-1.1,4.8c-0.1-0.1-0.3-0.3-0.5-0.4c0.9-1.4,1.1-4,1.1-6.4h-1v-0.6h3.4v0.6h-1.8c0,0.5,0,1,0,1.4L56.8,26.3z
				 M62.8,24.3h-4.4c-0.3,0.5-0.6,1-1,1.4c-0.1-0.1-0.3-0.3-0.5-0.4c0.7-0.6,1.2-1.6,1.4-2.7l0.6,0.1c-0.1,0.3-0.2,0.7-0.3,1h4.1
				V24.3z M59.1,29.9l0.6,0.2c-0.4,0.6-1.1,1.3-1.6,1.7c-0.1-0.1-0.3-0.3-0.5-0.4C58.1,31,58.7,30.5,59.1,29.9z M60.6,30.2l0.5-0.3
				c0.6,0.4,1.3,1.1,1.6,1.5l-0.5,0.4C61.9,31.4,61.2,30.7,60.6,30.2z M59.2,28.4v0.8h2.1v-0.8H59.2z M61.2,26h-2.1v0.7h2.1V26z
				 M59.2,27.2v0.8h2.1v-0.8H59.2z M61.8,29.2h1v0.6h-5.4v-0.6h1.1V26H58v-0.6h0.6v-0.7h0.6v0.7h2.1v-0.7h0.6v0.7h0.8V26h-0.8V29.2z
				 M75.9,24h-4.3v1.8l0.1-0.1c1.2,0.6,2.8,1.5,3.6,2.1l-0.5,0.6c-0.7-0.6-2.1-1.4-3.2-2v5.3h-0.7V24h-3.9v-0.7h8.8V24z M84.6,29
				l-0.4,0.4c-0.2-0.4-0.5-0.9-0.8-1.4c-0.4,1-0.9,1.8-1.5,2.4c-0.1-0.1-0.4-0.3-0.5-0.4c0.7-0.7,1.2-1.6,1.6-2.6
				c-0.5-0.7-0.9-1.3-1.4-1.9l0.4-0.4c0.4,0.5,0.8,1,1.2,1.6c0.2-0.7,0.4-1.4,0.5-2.2l0.6,0.1c-0.2,1-0.4,1.9-0.7,2.7
				C84,28,84.4,28.5,84.6,29z M87.6,29.3l-0.5,0.4c-0.2-0.5-0.5-1-0.9-1.6c-0.4,1-0.9,1.8-1.6,2.4c-0.1-0.1-0.4-0.3-0.5-0.4
				c0.7-0.7,1.3-1.6,1.7-2.7c-0.4-0.7-0.9-1.3-1.4-1.9l0.4-0.3c0.4,0.5,0.8,1,1.2,1.5c0.2-0.7,0.3-1.4,0.5-2.2l0.6,0.1
				c-0.2,1-0.4,1.9-0.7,2.7C86.9,28.1,87.3,28.8,87.6,29.3z M88.7,23.3v7.6c0,0.4-0.1,0.6-0.4,0.8c-0.3,0.1-0.8,0.1-1.7,0.1
				c0-0.2-0.2-0.5-0.2-0.7c0.7,0,1.3,0,1.5,0c0.2,0,0.3-0.1,0.3-0.2v-7h-6.9v7.9h-0.7v-8.5H88.7z M95.8,24.2l-0.6,0.2
				c-0.1-0.4-0.4-1-0.7-1.5l0.5-0.2C95.4,23.2,95.7,23.8,95.8,24.2z M95.9,29.4l1.1-0.3l0.1,0.6c-1.3,0.4-2.7,0.7-3.8,1l-0.2-0.6
				c0.6-0.1,1.3-0.3,2.2-0.5c0.2-1.1,0.5-2.9,0.7-4.1l0.6,0.1C96.5,26.8,96.2,28.4,95.9,29.4z M93.7,25.7l0.5-0.1
				c0.2,1.2,0.5,2.6,0.5,3.6l-0.6,0.1C94.2,28.4,94,26.9,93.7,25.7z M93.3,25.2v-0.6h3.8v0.6H93.3z M101.2,30.6V28H98v2.6H101.2z
				 M102.3,25.4h-2.6v2h2.1v4.3h-0.7v-0.4H98v0.5h-0.7v-4.3H99v-4.8h0.7v2.1h2.6V25.4z"/>
		</g>
	</g>
</g>
</svg>
